<?xml version="1.0" standalone="no"?>
<!DOCTYPE svg PUBLIC "-//W3C//DTD SVG 20010904//EN"
 "http://www.w3.org/TR/2001/REC-SVG-20010904/DTD/svg10.dtd">
<svg version="1.0" xmlns="http://www.w3.org/2000/svg"
 width="1024.000000pt" height="1024.000000pt" viewBox="0 0 1024.000000 1024.000000"
 preserveAspectRatio="xMidYMid meet">

<g transform="translate(0.000000,1024.000000) scale(0.100000,-0.100000)"
fill="#000000" stroke="none">
<path d="M0 5120 l0 -5120 5120 0 5120 0 0 5120 0 5120 -5120 0 -5120 0 0
-5120z m4290 3871 c107 -85 311 -252 455 -370 334 -276 621 -504 812 -647
l151 -114 69 73 c38 39 111 117 163 172 52 55 152 160 221 232 l127 132 62
-127 c82 -166 329 -696 415 -889 l68 -152 176 -138 c415 -324 922 -736 930
-755 1 -5 -18 -87 -45 -183 l-48 -174 85 -88 c211 -219 450 -514 524 -648 34
-60 34 -62 24 -126 -68 -425 -338 -880 -685 -1153 -32 -25 -59 -44 -61 -42 -2
1 9 27 23 57 50 103 142 379 126 379 -4 0 -23 -10 -42 -22 -19 -12 -104 -54
-188 -94 -144 -68 -156 -76 -184 -121 -67 -106 -218 -238 -344 -301 l-41 -21
40 97 c22 53 52 146 67 207 30 117 56 330 46 367 -7 24 -33 44 -405 306 l-233
165 -132 -53 c-244 -97 -601 -280 -813 -416 l-53 -34 98 -89 c130 -118 418
-413 517 -530 l80 -93 60 5 c116 11 302 76 429 150 27 15 50 26 53 23 7 -7
-47 -157 -92 -252 -24 -49 -64 -120 -88 -157 l-45 -67 113 0 c124 0 235 18
344 55 39 13 71 22 71 20 0 -2 -18 -45 -40 -95 -98 -228 -288 -481 -457 -612
l-56 -43 -186 1 c-134 0 -248 8 -411 27 -124 15 -241 27 -261 27 -34 0 -45 10
-173 149 -310 339 -694 702 -790 747 -100 46 -242 29 -436 -52 -157 -66 -152
-58 -86 -147 83 -113 274 -406 356 -547 243 -419 412 -810 560 -1294 27 -88
47 -162 45 -164 -2 -2 -11 11 -21 30 -25 49 -158 271 -322 538 -369 599 -697
1094 -959 1448 -45 61 -83 114 -83 117 0 10 244 165 327 208 319 164 600 180
803 45 123 -82 426 -384 730 -730 102 -115 104 -116 154 -122 131 -16 376 -35
516 -42 l155 -6 103 97 c56 53 102 100 102 105 0 4 -37 10 -82 13 -46 3 -118
14 -161 23 l-77 17 -183 211 c-410 473 -672 734 -933 930 -43 33 -83 63 -87
66 -22 19 523 358 792 494 240 121 615 276 669 276 10 0 54 -26 98 -59 43 -32
185 -136 314 -231 129 -95 300 -223 378 -283 l144 -111 -6 -39 -6 -38 107 57
c60 31 145 81 190 110 88 57 217 174 246 223 l18 31 -49 0 c-47 0 -51 2 -113
68 -98 101 -220 275 -204 290 6 6 376 -25 429 -35 l30 -6 -23 29 c-88 113
-266 310 -439 485 l-202 207 46 166 c26 91 45 168 43 169 -2 2 -67 53 -144
113 -210 166 -324 250 -495 366 -316 215 -511 327 -974 562 -536 271 -646 347
-1290 886 -380 318 -667 552 -672 547 -9 -9 -19 -556 -12 -742 13 -406 83
-836 179 -1098 16 -45 29 -84 29 -88 0 -5 -33 -25 -72 -46 -91 -47 -318 -198
-418 -277 -187 -149 -458 -408 -560 -537 l-29 -35 274 -39 c191 -26 272 -41
268 -49 -4 -6 -42 -63 -84 -126 -42 -63 -104 -160 -137 -216 -130 -216 -402
-738 -391 -749 3 -2 59 -18 124 -35 351 -90 657 -223 917 -397 118 -79 138
-99 81 -79 -86 30 -1311 307 -1470 332 -24 4 -43 11 -43 17 0 31 410 810 516
981 24 39 42 71 41 72 -3 4 -340 31 -494 40 -62 4 -113 10 -113 14 0 12 178
250 278 370 138 166 465 489 622 613 73 59 187 142 252 185 83 55 116 81 112
92 -15 40 -68 255 -92 372 l-27 131 -85 -2 c-197 -4 -553 -41 -780 -81 -184
-32 -290 -54 -290 -59 0 -3 44 -28 97 -56 110 -56 382 -210 395 -223 5 -5 -49
-28 -119 -52 -272 -92 -586 -241 -880 -418 -84 -50 -327 -208 -540 -350 -213
-142 -485 -318 -603 -391 -118 -73 -228 -142 -245 -154 l-30 -21 19 29 c38 59
127 174 203 261 340 394 849 771 1443 1069 l135 68 -130 63 c-71 35 -217 100
-323 145 -111 48 -187 86 -180 90 24 13 321 110 444 144 374 106 833 187 1209
215 83 6 168 13 190 16 l40 4 1 478 c0 438 16 822 40 1014 l7 47 126 -96 c69
-53 214 -166 321 -252z"/>
<path d="M6080 7845 c-74 -74 -132 -136 -130 -138 8 -7 531 -307 535 -307 2 0
-32 77 -76 171 -43 94 -103 225 -131 290 -29 65 -55 119 -58 119 -3 0 -66 -61
-140 -135z"/>
</g>
</svg>
